HIERARCHY
ROOT Hips
{
  OFFSET 0.0000 0.0000 0.0000
  CHANNELS 6 Xposition Yposition Zposition Zrotation Xrotation Yrotation
  JOINT LeftHip
  {
    OFFSET 5.5000 0.0000 0.0000
    CHANNELS 3 Zrotation Xrotation Yrotation
    JOINT LeftKnee
    {
      OFFSET 0.0000 -16.5000 0.0000
      CHANNELS 3 Zrotation Xrotation Yrotation
      JOINT LeftAnkle
      {
        OFFSET 0.0000 -17.0000 -0.0000
        CHANNELS 3 Zrotation Xrotation Yrotation
        End Site
        {
            OFFSET 0.0000 -4.0000 -2.0000
        }
      }
    }
  }
  JOINT RightHip
  {
    OFFSET -5.5000 0.0000 0.0000
    CHANNELS 3 Zrotation Xrotation Yrotation
    JOINT RightKnee
    {
      OFFSET 0.0000 -16.5000 0.0000
      CHANNELS 3 Zrotation Xrotation Yrotation
      JOINT RightAnkle
      {
        OFFSET 0.0000 -17.0000 0.0000
        CHANNELS 3 Zrotation Xrotation Yrotation
        End Site
        {
            OFFSET -0.0000 -4.0000 -2.0000
        }
      }
    }
  }
  JOINT Chest
  {
    OFFSET -0.0000 3.0000 -1.0000
    CHANNELS 3 Zrotation Xrotation Yrotation
    JOINT LeftCollar
    {
      OFFSET -0.0000 18.0000 1.0000
      CHANNELS 3 Zrotation Xrotation Yrotation
      JOINT LeftShoulder
      {
        OFFSET 6.5000 0.0000 0.0000
        CHANNELS 3 Zrotation Xrotation Yrotation
        JOINT LeftElbow
        {
          OFFSET 0.0000 -11.0000 0.0000
          CHANNELS 3 Zrotation Xrotation Yrotation
          JOINT LeftWrist
          {
            OFFSET 0.0000 -10.5000 0.0000
            CHANNELS 3 Zrotation Xrotation Yrotation
            End Site
            {
                OFFSET 0.0000 -6.0000 0.0000
            }
          }
        }
      }
    }
    JOINT RightCollar
    {
      OFFSET -0.0000 18.0000 1.0000
      CHANNELS 3 Zrotation Xrotation Yrotation
      JOINT RightShoulder
      {
        OFFSET -6.5000 -0.0000 0.0000
        CHANNELS 3 Zrotation Xrotation Yrotation
        JOINT RightElbow
        {
          OFFSET 0.0000 -11.0000 0.0000
          CHANNELS 3 Zrotation Xrotation Yrotation
          JOINT RightWrist
          {
            OFFSET 0.0000 -10.5000 0.0000
            CHANNELS 3 Zrotation Xrotation Yrotation
            End Site
            {
                OFFSET 0.0000 -6.0000 0.0000
            }
          }
        }
      }
    }
    JOINT Neck
    {
      OFFSET -0.0000 18.0000 1.0000
      CHANNELS 3 Zrotation Xrotation Yrotation
      JOINT Head
      {
        OFFSET 0.0000 3.0000 0.0000
        CHANNELS 3 Zrotation Xrotation Yrotation
        End Site
        {
            OFFSET 0.0000 7.0000 0.0000
        }
      }
    }
  }
}
MOTION
Frames:	11
Frame Time:	0.041667
9.8569 36.4646 86.9713 5.79 -2.88 2.89 -17.41 -1.34 -2.18 5.00 9.74 0.00 -6.09 -7.43 -11.71 -8.71 -21.45 -1.66 -5.00 53.99 0.00 6.79 1.40 -20.90 -7.25 -4.47 -3.96 -3.37 0.32 0.02 6.79 -15.10 -0.43 176.00 -62.76 180.00 20.20 13.04 14.12 -3.37 0.32 0.02 -11.74 -39.22 13.34 -176.00 -55.92 180.00 -59.97 -7.71 -11.48 -2.01 -7.46 0.00 -7.92 35.25 -16.34 
9.8043 36.4926 87.0733 5.49 -2.96 2.53 -17.06 -1.14 -2.10 5.00 9.71 0.00 -5.94 -7.43 -11.47 -8.53 -21.43 -1.59 -5.00 53.65 0.00 6.78 1.40 -20.90 -7.02 -4.48 -3.95 -3.06 0.40 0.02 6.79 -15.11 -0.43 176.00 -60.15 180.00 23.52 3.39 7.26 -3.06 0.40 0.02 -11.75 -39.01 13.36 -176.00 -55.93 180.00 -59.97 -7.71 -11.48 -2.01 -7.60 0.00 -8.02 35.67 -16.44 
9.8110 36.5165 87.0751 5.20 -3.01 2.22 -16.80 -1.11 -2.08 5.00 9.67 0.00 -5.97 -7.42 -11.25 -8.55 -21.04 -1.61 -5.00 53.22 0.00 6.78 1.39 -20.84 -6.99 -4.31 -3.95 -2.82 0.40 0.02 6.94 -15.63 -0.31 176.00 -59.08 180.00 24.50 -3.11 4.44 -2.82 0.40 0.02 -11.49 -39.05 13.52 -176.00 -55.97 180.00 -60.01 -7.92 -11.50 -1.96 -7.58 0.00 -7.98 35.80 -16.44 
9.8851 36.5100 87.1593 5.11 -3.00 1.96 -16.81 -0.99 -2.06 5.00 9.64 0.00 -6.12 -7.50 -11.00 -8.84 -20.84 -2.25 -5.00 52.89 0.00 6.82 1.19 -20.49 -6.85 -4.32 -3.94 -2.57 0.40 0.02 6.98 -16.24 -1.46 176.00 -60.11 180.00 24.15 -2.99 2.67 -2.57 0.40 0.02 -11.37 -39.21 13.57 -176.00 -56.01 180.00 -59.99 -8.05 -11.45 -2.00 -7.49 0.00 -7.66 35.71 -16.56 
9.9126 36.5021 87.2584 5.04 -3.00 1.62 -16.81 -0.86 -2.03 5.00 9.60 0.00 -6.09 -7.45 -10.71 -9.06 -20.84 -2.61 -5.00 52.84 0.00 6.86 1.00 -20.21 -6.86 -4.31 -3.95 -2.45 0.40 0.02 7.04 -16.89 -4.34 176.00 -64.71 180.00 23.55 1.71 5.29 -2.45 0.40 0.02 -11.24 -39.18 13.66 -176.00 -56.00 180.00 -59.98 -8.04 -11.46 -2.08 -7.50 0.00 -7.21 35.86 -16.87 
9.9364 36.5101 87.2308 4.97 -2.99 1.30 -16.81 -0.83 -2.02 5.00 9.40 0.00 -6.08 -7.45 -10.66 -9.09 -20.84 -2.64 -5.00 52.87 0.00 6.80 0.83 -20.16 -6.86 -4.48 -3.95 -2.42 0.40 0.02 6.48 -18.09 -7.62 176.00 -72.10 180.00 18.99 10.94 11.09 -2.42 0.40 0.02 -11.24 -39.39 13.63 -176.00 -56.01 180.00 -60.14 -8.01 -11.41 -2.09 -7.50 0.00 -7.17 35.87 -16.92 
9.8922 36.5060 87.2712 5.01 -2.99 0.97 -16.81 -0.83 -1.96 5.00 9.43 0.00 -6.08 -7.45 -10.50 -8.79 -20.90 -2.54 -5.00 52.92 0.00 6.76 0.81 -20.12 -6.92 -4.49 -3.95 -2.45 0.40 0.02 6.24 -18.33 -10.31 176.00 -77.10 180.00 17.23 19.98 18.23 -2.45 0.40 0.02 -11.24 -39.43 13.63 -176.00 -56.00 180.00 -60.14 -7.98 -11.42 -2.24 -7.22 0.00 -6.50 35.34 -17.41 
9.8920 36.4781 87.3328 5.15 -2.98 0.51 -16.93 -0.95 -1.59 5.00 9.73 0.00 -6.11 -7.66 -10.32 -8.61 -21.24 -2.55 -5.00 53.27 0.00 6.56 0.62 -19.98 -7.29 -4.37 -3.96 -2.58 0.40 0.02 6.37 -17.39 -10.31 176.00 -73.92 180.00 21.22 18.33 15.77 -2.58 0.40 0.02 -11.23 -39.62 13.60 -176.00 -55.96 180.00 -60.16 -7.84 -11.46 -2.33 -7.28 0.00 -6.35 35.87 -17.63 
9.9934 36.4630 87.2839 5.11 -3.00 0.07 -17.07 -1.07 -1.51 5.00 9.74 0.00 -6.08 -7.67 -9.90 -8.26 -21.37 -2.44 -5.00 53.52 0.00 6.55 0.54 -19.99 -7.37 -4.11 -3.96 -2.71 0.40 0.02 6.18 -16.61 -8.97 176.00 -68.17 180.00 21.91 11.28 9.97 -2.71 0.40 0.02 -11.25 -39.20 13.65 -176.00 -55.96 180.00 -60.03 -7.88 -11.50 -2.30 -7.42 0.00 -6.83 36.19 -17.46 
9.9364 36.4815 87.2848 5.02 -2.99 -0.21 -16.90 -1.07 -1.51 5.00 9.71 0.00 -6.26 -7.78 -9.70 -8.00 -21.38 -2.35 -5.00 53.27 0.00 6.39 0.61 -19.99 -7.10 -4.08 -3.95 -2.74 0.40 0.02 6.31 -16.81 -7.83 176.00 -64.08 180.00 24.34 3.12 7.53 -2.74 0.40 0.02 -11.25 -39.10 13.67 -176.00 -55.95 180.00 -60.01 -7.88 -11.51 -2.11 -7.60 0.00 -7.45 36.46 -17.25 
9.9636 36.4808 87.2857 4.98 -2.99 -0.21 -16.90 -1.07 -1.51 5.00 9.71 0.00 -6.26 -7.78 -9.70 -8.06 -21.35 -2.36 -5.00 53.03 0.00 6.40 0.51 -19.99 -7.14 -4.03 -3.95 -2.54 0.40 0.02 6.79 -17.87 -7.64 176.00 -61.75 180.00 26.66 -3.68 3.52 -2.54 0.40 0.02 -11.25 -39.10 13.67 -176.00 -55.96 180.00 -60.16 -7.85 -11.45 -2.02 -7.60 0.00 -7.57 36.46 -16.86 
